<svg width="90" height="90" viewBox="0 0 90 90" fill="none" xmlns="http://www.w3.org/2000/svg">
<path d="M67.5 48.75L78.75 60V75C78.75 76.9892 77.9598 78.8968 76.5533 80.3033C75.1468 81.7099 73.2391 82.5 71.25 82.5H18.75C16.7609 82.5 14.8532 81.7099 13.4467 80.3033C12.0402 78.8968 11.25 76.9892 11.25 75V60L22.5 48.75H25.6125L33.1125 56.25H25.425L18.75 63.75H71.25L64.6125 56.25H57.45L64.95 48.75H67.5ZM71.25 75V71.25H18.75V75H71.25ZM42.525 56.25L23.9625 37.7625C23.6149 37.4156 23.3391 37.0035 23.1509 36.5499C22.9627 36.0962 22.8658 35.6099 22.8658 35.1188C22.8658 34.6276 22.9627 34.1413 23.1509 33.6877C23.3391 33.234 23.6149 32.822 23.9625 32.475L47.85 8.58753C48.1934 8.2384 48.6033 7.96181 49.0556 7.77415C49.5079 7.58649 49.9933 7.49159 50.4829 7.49509C50.9726 7.49859 51.4566 7.60041 51.9061 7.79451C52.3557 7.98861 52.7617 8.27103 53.1 8.62503L71.6625 27.1875C73.125 28.65 73.125 31.0125 71.6625 32.475L47.8125 56.25C47.4748 56.6137 47.0658 56.9038 46.6109 57.1022C46.156 57.3006 45.665 57.403 45.1688 57.403C44.6725 57.403 44.1815 57.3006 43.7266 57.1022C43.2717 56.9038 42.8627 56.6137 42.525 56.25ZM50.475 16.5375L31.875 35.1L45.1875 48.375L63.75 29.8125L50.475 16.5375Z" fill="black"/>
</svg>
